<?xml version="1.0" encoding="UTF-8" standalone="no"?>
<!DOCTYPE svg PUBLIC "-//W3C//DTD SVG 1.1//EN"
 "http://www.w3.org/Graphics/SVG/1.1/DTD/svg11.dtd">
<!-- Generated by graphviz version 2.40.1 (20161225.0304)
 -->
<!-- Title: dependencies Pages: 1 -->
<svg width="504pt" height="284pt"
 viewBox="0.00 0.00 504.00 284.00" xmlns="http://www.w3.org/2000/svg" xmlns:xlink="http://www.w3.org/1999/xlink">
<g id="graph0" class="graph" transform="scale(1 1) rotate(0) translate(4 280)">
<title>dependencies</title>
<polygon fill="#ffffff" stroke="transparent" points="-4,4 -4,-280 500,-280 500,4 -4,4"/>
<text text-anchor="start" x="227.0091" y="-42.4" font-family="sans-serif" font-weight="bold" font-size="14.00" fill="#000000">Legend</text>
<polygon fill="#ffffb3" stroke="transparent" points="14,-10 14,-30 34,-30 34,-10 14,-10"/>
<text text-anchor="start" x="37.629" y="-15.4" font-family="sans-serif" font-size="14.00" fill="#000000"> &#160;Declarations</text>
<polygon fill="#8dd3c7" stroke="transparent" points="127,-10 127,-30 147,-30 147,-10 127,-10"/>
<text text-anchor="start" x="150.7251" y="-15.4" font-family="sans-serif" font-size="14.00" fill="#000000"> &#160;Module</text>
<polygon fill="#80b1d3" stroke="transparent" points="213,-10 213,-30 233,-30 233,-10 213,-10"/>
<text text-anchor="start" x="236.7812" y="-15.4" font-family="sans-serif" font-size="14.00" fill="#000000"> &#160;Bootstrap</text>
<polygon fill="#fdb462" stroke="transparent" points="310,-10 310,-30 330,-30 330,-10 310,-10"/>
<text text-anchor="start" x="333.6732" y="-15.4" font-family="sans-serif" font-size="14.00" fill="#000000"> &#160;Providers</text>
<polygon fill="#fb8072" stroke="transparent" points="406,-10 406,-30 426,-30 426,-10 406,-10"/>
<text text-anchor="start" x="429.7258" y="-15.4" font-family="sans-serif" font-size="14.00" fill="#000000"> &#160;Exports</text>
<g id="clust1" class="cluster">
<title>cluster_PipeModule</title>
<polygon fill="none" stroke="#000000" stroke-dasharray="1,5" points="116,-70 116,-268 380,-268 380,-70 116,-70"/>
</g>
<g id="clust2" class="cluster">
<title>cluster_PipeModule_declarations</title>
<polygon fill="none" stroke="#000000" points="128,-78 128,-130 368,-130 368,-78 128,-78"/>
</g>
<g id="clust6" class="cluster">
<title>cluster_PipeModule_exports</title>
<polygon fill="none" stroke="#000000" points="124,-208 124,-260 372,-260 372,-208 124,-208"/>
</g>
<!-- AgePipe -->
<g id="node1" class="node">
<title>AgePipe</title>
<polygon fill="#ffffb3" stroke="#000000" points="360.2093,-122 295.7907,-122 295.7907,-86 360.2093,-86 360.2093,-122"/>
<text text-anchor="middle" x="328" y="-99.8" font-family="Times,serif" font-size="14.00" fill="#000000">AgePipe</text>
</g>
<!-- PipeModule -->
<g id="node3" class="node">
<title>PipeModule</title>
<polygon fill="#8dd3c7" stroke="#000000" points="250.4387,-187 247.4387,-191 226.4387,-191 223.4387,-187 165.5613,-187 165.5613,-151 250.4387,-151 250.4387,-187"/>
<text text-anchor="middle" x="208" y="-164.8" font-family="Times,serif" font-size="14.00" fill="#000000">PipeModule</text>
</g>
<!-- AgePipe&#45;&gt;PipeModule -->
<g id="edge1" class="edge">
<title>AgePipe&#45;&gt;PipeModule</title>
<path fill="none" stroke="#000000" d="M338.7848,-122.0225C338.7848,-139.3734 338.7848,-163 338.7848,-163 338.7848,-163 260.4621,-163 260.4621,-163"/>
<polygon fill="#000000" stroke="#000000" points="260.4621,-159.5001 250.4621,-163 260.4621,-166.5001 260.4621,-159.5001"/>
</g>
<!-- CalculateDistancePipe -->
<g id="node2" class="node">
<title>CalculateDistancePipe</title>
<polygon fill="#ffffb3" stroke="#000000" points="278.2311,-122 135.7689,-122 135.7689,-86 278.2311,-86 278.2311,-122"/>
<text text-anchor="middle" x="207" y="-99.8" font-family="Times,serif" font-size="14.00" fill="#000000">CalculateDistancePipe</text>
</g>
<!-- CalculateDistancePipe&#45;&gt;PipeModule -->
<g id="edge2" class="edge">
<title>CalculateDistancePipe&#45;&gt;PipeModule</title>
<path fill="none" stroke="#000000" d="M208,-122.1061C208,-122.1061 208,-140.991 208,-140.991"/>
<polygon fill="#000000" stroke="#000000" points="204.5001,-140.9909 208,-150.991 211.5001,-140.991 204.5001,-140.9909"/>
</g>
<!-- AgePipe  -->
<g id="node4" class="node">
<title>AgePipe </title>
<polygon fill="#fb8072" stroke="#000000" points="363.7096,-252 296.2904,-252 296.2904,-216 363.7096,-216 363.7096,-252"/>
<text text-anchor="middle" x="330" y="-229.8" font-family="Times,serif" font-size="14.00" fill="#000000">AgePipe </text>
</g>
<!-- PipeModule&#45;&gt;AgePipe  -->
<g id="edge3" class="edge">
<title>PipeModule&#45;&gt;AgePipe </title>
<path fill="none" stroke="#000000" stroke-dasharray="5,2" d="M250.3221,-175C281.1256,-175 317.4652,-175 317.4652,-175 317.4652,-175 317.4652,-205.9775 317.4652,-205.9775"/>
<polygon fill="#000000" stroke="#000000" points="313.9653,-205.9774 317.4652,-215.9775 320.9653,-205.9775 313.9653,-205.9774"/>
</g>
<!-- CalculateDistancePipe  -->
<g id="node5" class="node">
<title>CalculateDistancePipe </title>
<polygon fill="#fb8072" stroke="#000000" points="278.231,-252 131.769,-252 131.769,-216 278.231,-216 278.231,-252"/>
<text text-anchor="middle" x="205" y="-229.8" font-family="Times,serif" font-size="14.00" fill="#000000">CalculateDistancePipe </text>
</g>
<!-- PipeModule&#45;&gt;CalculateDistancePipe  -->
<g id="edge4" class="edge">
<title>PipeModule&#45;&gt;CalculateDistancePipe </title>
<path fill="none" stroke="#000000" stroke-dasharray="5,2" d="M208,-187.1061C208,-187.1061 208,-205.991 208,-205.991"/>
<polygon fill="#000000" stroke="#000000" points="204.5001,-205.9909 208,-215.991 211.5001,-205.991 204.5001,-205.9909"/>
</g>
</g>
</svg>
