<?xml version="1.0" encoding="UTF-8" standalone="no"?>
<!DOCTYPE svg PUBLIC "-//W3C//DTD SVG 1.1//EN"
 "http://www.w3.org/Graphics/SVG/1.1/DTD/svg11.dtd">
<!-- Generated by graphviz version 2.40.1 (20161225.0304)
 -->
<!-- Title: dependencies Pages: 1 -->
<svg width="4912pt" height="284pt"
 viewBox="0.00 0.00 4912.00 284.00" xmlns="http://www.w3.org/2000/svg" xmlns:xlink="http://www.w3.org/1999/xlink">
<g id="graph0" class="graph" transform="scale(1 1) rotate(0) translate(4 280)">
<title>dependencies</title>
<polygon fill="#ffffff" stroke="transparent" points="-4,4 -4,-280 4908,-280 4908,4 -4,4"/>
<text text-anchor="start" x="2431.0091" y="-42.4" font-family="sans-serif" font-weight="bold" font-size="14.00" fill="#000000">Legend</text>
<polygon fill="#ffffb3" stroke="transparent" points="2218,-10 2218,-30 2238,-30 2238,-10 2218,-10"/>
<text text-anchor="start" x="2241.629" y="-15.4" font-family="sans-serif" font-size="14.00" fill="#000000"> &#160;Declarations</text>
<polygon fill="#8dd3c7" stroke="transparent" points="2331,-10 2331,-30 2351,-30 2351,-10 2331,-10"/>
<text text-anchor="start" x="2354.7251" y="-15.4" font-family="sans-serif" font-size="14.00" fill="#000000"> &#160;Module</text>
<polygon fill="#80b1d3" stroke="transparent" points="2417,-10 2417,-30 2437,-30 2437,-10 2417,-10"/>
<text text-anchor="start" x="2440.7812" y="-15.4" font-family="sans-serif" font-size="14.00" fill="#000000"> &#160;Bootstrap</text>
<polygon fill="#fdb462" stroke="transparent" points="2514,-10 2514,-30 2534,-30 2534,-10 2514,-10"/>
<text text-anchor="start" x="2537.6732" y="-15.4" font-family="sans-serif" font-size="14.00" fill="#000000"> &#160;Providers</text>
<polygon fill="#fb8072" stroke="transparent" points="2610,-10 2610,-30 2630,-30 2630,-10 2610,-10"/>
<text text-anchor="start" x="2633.7258" y="-15.4" font-family="sans-serif" font-size="14.00" fill="#000000"> &#160;Exports</text>
<g id="clust1" class="cluster">
<title>cluster_AppModule</title>
<polygon fill="none" stroke="#000000" stroke-dasharray="1,5" points="8,-70 8,-268 4458,-268 4458,-70 8,-70"/>
</g>
<g id="clust2" class="cluster">
<title>cluster_AppModule_declarations</title>
<polygon fill="none" stroke="#000000" points="1536,-78 1536,-130 4450,-130 4450,-78 1536,-78"/>
</g>
<g id="clust27" class="cluster">
<title>cluster_AppModule_bootstrap</title>
<polygon fill="none" stroke="#000000" points="2103,-208 2103,-260 2191,-260 2191,-208 2103,-208"/>
</g>
<g id="clust28" class="cluster">
<title>cluster_AppModule_providers</title>
<polygon fill="none" stroke="#000000" points="16,-78 16,-130 1528,-130 1528,-78 16,-78"/>
</g>
<g id="clust29" class="cluster">
<title>cluster_PipeModule</title>
<polygon fill="none" stroke="#000000" stroke-dasharray="1,5" points="4466,-70 4466,-268 4730,-268 4730,-70 4466,-70"/>
</g>
<g id="clust30" class="cluster">
<title>cluster_PipeModule_declarations</title>
<polygon fill="none" stroke="#000000" points="4478,-78 4478,-130 4718,-130 4718,-78 4478,-78"/>
</g>
<g id="clust34" class="cluster">
<title>cluster_PipeModule_exports</title>
<polygon fill="none" stroke="#000000" points="4474,-208 4474,-260 4722,-260 4722,-208 4474,-208"/>
</g>
<g id="clust37" class="cluster">
<title>cluster_PrelaunchPageModule</title>
<polygon fill="none" stroke="#000000" stroke-dasharray="1,5" points="4738,-70 4738,-195 4896,-195 4896,-70 4738,-70"/>
</g>
<g id="clust38" class="cluster">
<title>cluster_PrelaunchPageModule_declarations</title>
<polygon fill="none" stroke="#000000" points="4759,-78 4759,-130 4875,-130 4875,-78 4759,-78"/>
</g>
<!-- BackButtonComponent -->
<g id="node1" class="node">
<title>BackButtonComponent</title>
<polygon fill="#ffffb3" stroke="#000000" points="4442.2162,-122 4293.7838,-122 4293.7838,-86 4442.2162,-86 4442.2162,-122"/>
<text text-anchor="middle" x="4368" y="-99.8" font-family="Times,serif" font-size="14.00" fill="#000000">BackButtonComponent</text>
</g>
<!-- AppModule -->
<g id="node23" class="node">
<title>AppModule</title>
<polygon fill="#8dd3c7" stroke="#000000" points="2188.6571,-187 2185.6571,-191 2164.6571,-191 2161.6571,-187 2105.3429,-187 2105.3429,-151 2188.6571,-151 2188.6571,-187"/>
<text text-anchor="middle" x="2147" y="-164.8" font-family="Times,serif" font-size="14.00" fill="#000000">AppModule</text>
</g>
<!-- BackButtonComponent&#45;&gt;AppModule -->
<g id="edge1" class="edge">
<title>BackButtonComponent&#45;&gt;AppModule</title>
<path fill="none" stroke="#000000" d="M4368,-122.3802C4368,-146.2785 4368,-185 4368,-185 4368,-185 2198.8955,-185 2198.8955,-185"/>
<polygon fill="#000000" stroke="#000000" points="2198.8956,-181.5001 2188.8955,-185 2198.8955,-188.5001 2198.8956,-181.5001"/>
</g>
<!-- ChatBubbleComponent -->
<g id="node2" class="node">
<title>ChatBubbleComponent</title>
<polygon fill="#ffffb3" stroke="#000000" points="4276.2162,-122 4127.7838,-122 4127.7838,-86 4276.2162,-86 4276.2162,-122"/>
<text text-anchor="middle" x="4202" y="-99.8" font-family="Times,serif" font-size="14.00" fill="#000000">ChatBubbleComponent</text>
</g>
<!-- ChatBubbleComponent&#45;&gt;AppModule -->
<g id="edge2" class="edge">
<title>ChatBubbleComponent&#45;&gt;AppModule</title>
<path fill="none" stroke="#000000" d="M4202,-122.3228C4202,-145.6602 4202,-183 4202,-183 4202,-183 2198.9806,-183 2198.9806,-183"/>
<polygon fill="#000000" stroke="#000000" points="2198.9807,-179.5001 2188.9806,-183 2198.9806,-186.5001 2198.9807,-179.5001"/>
</g>
<!-- ChatroomPage -->
<g id="node3" class="node">
<title>ChatroomPage</title>
<polygon fill="#ffffb3" stroke="#000000" points="4109.705,-122 4010.295,-122 4010.295,-86 4109.705,-86 4109.705,-122"/>
<text text-anchor="middle" x="4060" y="-99.8" font-family="Times,serif" font-size="14.00" fill="#000000">ChatroomPage</text>
</g>
<!-- ChatroomPage&#45;&gt;AppModule -->
<g id="edge3" class="edge">
<title>ChatroomPage&#45;&gt;AppModule</title>
<path fill="none" stroke="#000000" d="M4060,-122.2479C4060,-145.0179 4060,-181 4060,-181 4060,-181 2198.7348,-181 2198.7348,-181"/>
<polygon fill="#000000" stroke="#000000" points="2198.7348,-177.5001 2188.7348,-181 2198.7348,-184.5001 2198.7348,-177.5001"/>
</g>
<!-- ContactsListPage -->
<g id="node4" class="node">
<title>ContactsListPage</title>
<polygon fill="#ffffb3" stroke="#000000" points="3991.9818,-122 3878.0182,-122 3878.0182,-86 3991.9818,-86 3991.9818,-122"/>
<text text-anchor="middle" x="3935" y="-99.8" font-family="Times,serif" font-size="14.00" fill="#000000">ContactsListPage</text>
</g>
<!-- ContactsListPage&#45;&gt;AppModule -->
<g id="edge4" class="edge">
<title>ContactsListPage&#45;&gt;AppModule</title>
<path fill="none" stroke="#000000" d="M3935,-122.1554C3935,-144.3519 3935,-179 3935,-179 3935,-179 2198.9988,-179 2198.9988,-179"/>
<polygon fill="#000000" stroke="#000000" points="2198.9988,-175.5001 2188.9988,-179 2198.9987,-182.5001 2198.9988,-175.5001"/>
</g>
<!-- DefaultImageDirective -->
<g id="node5" class="node">
<title>DefaultImageDirective</title>
<polygon fill="#ffffb3" stroke="#000000" points="3859.5408,-122 3714.4592,-122 3714.4592,-86 3859.5408,-86 3859.5408,-122"/>
<text text-anchor="middle" x="3787" y="-99.8" font-family="Times,serif" font-size="14.00" fill="#000000">DefaultImageDirective</text>
</g>
<!-- DefaultImageDirective&#45;&gt;AppModule -->
<g id="edge5" class="edge">
<title>DefaultImageDirective&#45;&gt;AppModule</title>
<path fill="none" stroke="#000000" d="M3787,-122.0449C3787,-143.6623 3787,-177 3787,-177 3787,-177 2198.7728,-177 2198.7728,-177"/>
<polygon fill="#000000" stroke="#000000" points="2198.7728,-173.5001 2188.7728,-177 2198.7727,-180.5001 2198.7728,-173.5001"/>
</g>
<!-- FilterPage -->
<g id="node6" class="node">
<title>FilterPage</title>
<polygon fill="#ffffb3" stroke="#000000" points="3696.5428,-122 3623.4572,-122 3623.4572,-86 3696.5428,-86 3696.5428,-122"/>
<text text-anchor="middle" x="3660" y="-99.8" font-family="Times,serif" font-size="14.00" fill="#000000">FilterPage</text>
</g>
<!-- FilterPage&#45;&gt;AppModule -->
<g id="edge6" class="edge">
<title>FilterPage&#45;&gt;AppModule</title>
<path fill="none" stroke="#000000" d="M3660,-122.2843C3660,-143.3211 3660,-175 3660,-175 3660,-175 2199.0454,-175 2199.0454,-175"/>
<polygon fill="#000000" stroke="#000000" points="2199.0454,-171.5001 2189.0454,-175 2199.0454,-178.5001 2199.0454,-171.5001"/>
</g>
<!-- GalleryComponent -->
<g id="node7" class="node">
<title>GalleryComponent</title>
<polygon fill="#ffffb3" stroke="#000000" points="3605.8104,-122 3482.1896,-122 3482.1896,-86 3605.8104,-86 3605.8104,-122"/>
<text text-anchor="middle" x="3544" y="-99.8" font-family="Times,serif" font-size="14.00" fill="#000000">GalleryComponent</text>
</g>
<!-- GalleryComponent&#45;&gt;AppModule -->
<g id="edge7" class="edge">
<title>GalleryComponent&#45;&gt;AppModule</title>
<path fill="none" stroke="#000000" d="M3544,-122.1289C3544,-142.5724 3544,-173 3544,-173 3544,-173 2198.8094,-173 2198.8094,-173"/>
<polygon fill="#000000" stroke="#000000" points="2198.8095,-169.5001 2188.8094,-173 2198.8094,-176.5001 2198.8095,-169.5001"/>
</g>
<!-- LoginPage -->
<g id="node8" class="node">
<title>LoginPage</title>
<polygon fill="#ffffb3" stroke="#000000" points="3464.1558,-122 3387.8442,-122 3387.8442,-86 3464.1558,-86 3464.1558,-122"/>
<text text-anchor="middle" x="3426" y="-99.8" font-family="Times,serif" font-size="14.00" fill="#000000">LoginPage</text>
</g>
<!-- LoginPage&#45;&gt;AppModule -->
<g id="edge8" class="edge">
<title>LoginPage&#45;&gt;AppModule</title>
<path fill="none" stroke="#000000" d="M3426,-122.308C3426,-142.1455 3426,-171 3426,-171 3426,-171 2198.8275,-171 2198.8275,-171"/>
<polygon fill="#000000" stroke="#000000" points="2198.8275,-167.5001 2188.8275,-171 2198.8274,-174.5001 2198.8275,-167.5001"/>
</g>
<!-- MeetSomebodyPage -->
<g id="node9" class="node">
<title>MeetSomebodyPage</title>
<polygon fill="#ffffb3" stroke="#000000" points="3369.8641,-122 3238.1359,-122 3238.1359,-86 3369.8641,-86 3369.8641,-122"/>
<text text-anchor="middle" x="3304" y="-99.8" font-family="Times,serif" font-size="14.00" fill="#000000">MeetSomebodyPage</text>
</g>
<!-- MeetSomebodyPage&#45;&gt;AppModule -->
<g id="edge9" class="edge">
<title>MeetSomebodyPage&#45;&gt;AppModule</title>
<path fill="none" stroke="#000000" d="M3304,-122.1686C3304,-141.0898 3304,-168 3304,-168 3304,-168 2198.8618,-168 2198.8618,-168"/>
<polygon fill="#000000" stroke="#000000" points="2198.8618,-164.5001 2188.8618,-168 2198.8617,-171.5001 2198.8618,-164.5001"/>
</g>
<!-- MenuButtonComponent -->
<g id="node10" class="node">
<title>MenuButtonComponent</title>
<polygon fill="#ffffb3" stroke="#000000" points="3220.1094,-122 3067.8906,-122 3067.8906,-86 3220.1094,-86 3220.1094,-122"/>
<text text-anchor="middle" x="3144" y="-99.8" font-family="Times,serif" font-size="14.00" fill="#000000">MenuButtonComponent</text>
</g>
<!-- MenuButtonComponent&#45;&gt;AppModule -->
<g id="edge10" class="edge">
<title>MenuButtonComponent&#45;&gt;AppModule</title>
<path fill="none" stroke="#000000" d="M3144,-122.2667C3144,-140.5552 3144,-166 3144,-166 3144,-166 2198.8862,-166 2198.8862,-166"/>
<polygon fill="#000000" stroke="#000000" points="2198.8863,-162.5001 2188.8862,-166 2198.8862,-169.5001 2198.8863,-162.5001"/>
</g>
<!-- MyApp -->
<g id="node11" class="node">
<title>MyApp</title>
<polygon fill="#ffffb3" stroke="#000000" points="3049.5529,-122 2990.4471,-122 2990.4471,-86 3049.5529,-86 3049.5529,-122"/>
<text text-anchor="middle" x="3020" y="-99.8" font-family="Times,serif" font-size="14.00" fill="#000000">MyApp</text>
</g>
<!-- MyApp&#45;&gt;AppModule -->
<g id="edge11" class="edge">
<title>MyApp&#45;&gt;AppModule</title>
<path fill="none" stroke="#000000" d="M3020,-122.002C3020,-139.6754 3020,-164 3020,-164 3020,-164 2198.8125,-164 2198.8125,-164"/>
<polygon fill="#000000" stroke="#000000" points="2198.8125,-160.5001 2188.8125,-164 2198.8125,-167.5001 2198.8125,-160.5001"/>
</g>
<!-- MyProfilePage -->
<g id="node12" class="node">
<title>MyProfilePage</title>
<polygon fill="#ffffb3" stroke="#000000" points="2972.2563,-122 2871.7437,-122 2871.7437,-86 2972.2563,-86 2972.2563,-122"/>
<text text-anchor="middle" x="2922" y="-99.8" font-family="Times,serif" font-size="14.00" fill="#000000">MyProfilePage</text>
</g>
<!-- MyProfilePage&#45;&gt;AppModule -->
<g id="edge12" class="edge">
<title>MyProfilePage&#45;&gt;AppModule</title>
<path fill="none" stroke="#000000" d="M2922,-122.0336C2922,-139.0597 2922,-162 2922,-162 2922,-162 2198.6674,-162 2198.6674,-162"/>
<polygon fill="#000000" stroke="#000000" points="2198.6674,-158.5001 2188.6674,-162 2198.6673,-165.5001 2198.6674,-158.5001"/>
</g>
<!-- NotificationsListPage -->
<g id="node13" class="node">
<title>NotificationsListPage</title>
<polygon fill="#ffffb3" stroke="#000000" points="2854.0842,-122 2715.9158,-122 2715.9158,-86 2854.0842,-86 2854.0842,-122"/>
<text text-anchor="middle" x="2785" y="-99.8" font-family="Times,serif" font-size="14.00" fill="#000000">NotificationsListPage</text>
</g>
<!-- NotificationsListPage&#45;&gt;AppModule -->
<g id="edge13" class="edge">
<title>NotificationsListPage&#45;&gt;AppModule</title>
<path fill="none" stroke="#000000" d="M2785,-122.027C2785,-138.3976 2785,-160 2785,-160 2785,-160 2198.861,-160 2198.861,-160"/>
<polygon fill="#000000" stroke="#000000" points="2198.861,-156.5001 2188.861,-160 2198.8609,-163.5001 2198.861,-156.5001"/>
</g>
<!-- ParticipantsListPage -->
<g id="node14" class="node">
<title>ParticipantsListPage</title>
<polygon fill="#ffffb3" stroke="#000000" points="2697.5842,-122 2566.4158,-122 2566.4158,-86 2697.5842,-86 2697.5842,-122"/>
<text text-anchor="middle" x="2632" y="-99.8" font-family="Times,serif" font-size="14.00" fill="#000000">ParticipantsListPage</text>
</g>
<!-- ParticipantsListPage&#45;&gt;AppModule -->
<g id="edge14" class="edge">
<title>ParticipantsListPage&#45;&gt;AppModule</title>
<path fill="none" stroke="#000000" d="M2632,-122.2819C2632,-137.9478 2632,-158 2632,-158 2632,-158 2198.7706,-158 2198.7706,-158"/>
<polygon fill="#000000" stroke="#000000" points="2198.7706,-154.5001 2188.7706,-158 2198.7706,-161.5001 2198.7706,-154.5001"/>
</g>
<!-- ProfilePostsComponent -->
<g id="node15" class="node">
<title>ProfilePostsComponent</title>
<polygon fill="#ffffb3" stroke="#000000" points="2548.4944,-122 2399.5056,-122 2399.5056,-86 2548.4944,-86 2548.4944,-122"/>
<text text-anchor="middle" x="2474" y="-99.8" font-family="Times,serif" font-size="14.00" fill="#000000">ProfilePostsComponent</text>
</g>
<!-- ProfilePostsComponent&#45;&gt;AppModule -->
<g id="edge15" class="edge">
<title>ProfilePostsComponent&#45;&gt;AppModule</title>
<path fill="none" stroke="#000000" d="M2474,-122.1871C2474,-137.1824 2474,-156 2474,-156 2474,-156 2198.7469,-156 2198.7469,-156"/>
<polygon fill="#000000" stroke="#000000" points="2198.747,-152.5001 2188.7469,-156 2198.7469,-159.5001 2198.747,-152.5001"/>
</g>
<!-- ProfileTimelineComponent -->
<g id="node16" class="node">
<title>ProfileTimelineComponent</title>
<polygon fill="#ffffb3" stroke="#000000" points="2381.9762,-122 2212.0238,-122 2212.0238,-86 2381.9762,-86 2381.9762,-122"/>
<text text-anchor="middle" x="2297" y="-99.8" font-family="Times,serif" font-size="14.00" fill="#000000">ProfileTimelineComponent</text>
</g>
<!-- ProfileTimelineComponent&#45;&gt;AppModule -->
<g id="edge16" class="edge">
<title>ProfileTimelineComponent&#45;&gt;AppModule</title>
<path fill="none" stroke="#000000" d="M2297,-122.0511C2297,-136.373 2297,-154 2297,-154 2297,-154 2198.7834,-154 2198.7834,-154"/>
<polygon fill="#000000" stroke="#000000" points="2198.7834,-150.5001 2188.7834,-154 2198.7833,-157.5001 2198.7834,-150.5001"/>
</g>
<!-- PurchasePage -->
<g id="node17" class="node">
<title>PurchasePage</title>
<polygon fill="#ffffb3" stroke="#000000" points="2193.7438,-122 2100.2562,-122 2100.2562,-86 2193.7438,-86 2193.7438,-122"/>
<text text-anchor="middle" x="2147" y="-99.8" font-family="Times,serif" font-size="14.00" fill="#000000">PurchasePage</text>
</g>
<!-- PurchasePage&#45;&gt;AppModule -->
<g id="edge17" class="edge">
<title>PurchasePage&#45;&gt;AppModule</title>
<path fill="none" stroke="#000000" d="M2147,-122.1061C2147,-122.1061 2147,-140.991 2147,-140.991"/>
<polygon fill="#000000" stroke="#000000" points="2143.5001,-140.9909 2147,-150.991 2150.5001,-140.991 2143.5001,-140.9909"/>
</g>
<!-- RequestsListPage -->
<g id="node18" class="node">
<title>RequestsListPage</title>
<polygon fill="#ffffb3" stroke="#000000" points="2081.5367,-122 1966.4633,-122 1966.4633,-86 2081.5367,-86 2081.5367,-122"/>
<text text-anchor="middle" x="2024" y="-99.8" font-family="Times,serif" font-size="14.00" fill="#000000">RequestsListPage</text>
</g>
<!-- RequestsListPage&#45;&gt;AppModule -->
<g id="edge18" class="edge">
<title>RequestsListPage&#45;&gt;AppModule</title>
<path fill="none" stroke="#000000" d="M2024,-122.0511C2024,-136.373 2024,-154 2024,-154 2024,-154 2095.0144,-154 2095.0144,-154"/>
<polygon fill="#000000" stroke="#000000" points="2095.0144,-157.5001 2105.0144,-154 2095.0144,-150.5001 2095.0144,-157.5001"/>
</g>
<!-- SettingsPage -->
<g id="node19" class="node">
<title>SettingsPage</title>
<polygon fill="#ffffb3" stroke="#000000" points="1948.326,-122 1859.674,-122 1859.674,-86 1948.326,-86 1948.326,-122"/>
<text text-anchor="middle" x="1904" y="-99.8" font-family="Times,serif" font-size="14.00" fill="#000000">SettingsPage</text>
</g>
<!-- SettingsPage&#45;&gt;AppModule -->
<g id="edge19" class="edge">
<title>SettingsPage&#45;&gt;AppModule</title>
<path fill="none" stroke="#000000" d="M1904,-122.1871C1904,-137.1824 1904,-156 1904,-156 1904,-156 2095.2268,-156 2095.2268,-156"/>
<polygon fill="#000000" stroke="#000000" points="2095.2268,-159.5001 2105.2268,-156 2095.2268,-152.5001 2095.2268,-159.5001"/>
</g>
<!-- UserProfilePage -->
<g id="node20" class="node">
<title>UserProfilePage</title>
<polygon fill="#ffffb3" stroke="#000000" points="1841.7381,-122 1734.2619,-122 1734.2619,-86 1841.7381,-86 1841.7381,-122"/>
<text text-anchor="middle" x="1788" y="-99.8" font-family="Times,serif" font-size="14.00" fill="#000000">UserProfilePage</text>
</g>
<!-- UserProfilePage&#45;&gt;AppModule -->
<g id="edge20" class="edge">
<title>UserProfilePage&#45;&gt;AppModule</title>
<path fill="none" stroke="#000000" d="M1788,-122.2819C1788,-137.9478 1788,-158 1788,-158 1788,-158 2095.1155,-158 2095.1155,-158"/>
<polygon fill="#000000" stroke="#000000" points="2095.1156,-161.5001 2105.1155,-158 2095.1155,-154.5001 2095.1156,-161.5001"/>
</g>
<!-- VIPPage -->
<g id="node21" class="node">
<title>VIPPage</title>
<polygon fill="#ffffb3" stroke="#000000" points="1715.762,-122 1650.238,-122 1650.238,-86 1715.762,-86 1715.762,-122"/>
<text text-anchor="middle" x="1683" y="-99.8" font-family="Times,serif" font-size="14.00" fill="#000000">VIPPage</text>
</g>
<!-- VIPPage&#45;&gt;AppModule -->
<g id="edge21" class="edge">
<title>VIPPage&#45;&gt;AppModule</title>
<path fill="none" stroke="#000000" d="M1683,-122.027C1683,-138.3976 1683,-160 1683,-160 1683,-160 2095.0047,-160 2095.0047,-160"/>
<polygon fill="#000000" stroke="#000000" points="2095.0048,-163.5001 2105.0047,-160 2095.0047,-156.5001 2095.0048,-163.5001"/>
</g>
<!-- WaitlistPage -->
<g id="node22" class="node">
<title>WaitlistPage</title>
<polygon fill="#ffffb3" stroke="#000000" points="1631.5398,-122 1544.4602,-122 1544.4602,-86 1631.5398,-86 1631.5398,-122"/>
<text text-anchor="middle" x="1588" y="-99.8" font-family="Times,serif" font-size="14.00" fill="#000000">WaitlistPage</text>
</g>
<!-- WaitlistPage&#45;&gt;AppModule -->
<g id="edge22" class="edge">
<title>WaitlistPage&#45;&gt;AppModule</title>
<path fill="none" stroke="#000000" d="M1588,-122.0336C1588,-139.0597 1588,-162 1588,-162 1588,-162 2094.9841,-162 2094.9841,-162"/>
<polygon fill="#000000" stroke="#000000" points="2094.9842,-165.5001 2104.9841,-162 2094.9841,-158.5001 2094.9842,-165.5001"/>
</g>
<!-- IonicApp  -->
<g id="node24" class="node">
<title>IonicApp </title>
<polygon fill="#80b1d3" stroke="#000000" points="2183.3734,-252 2110.6266,-252 2110.6266,-216 2183.3734,-216 2183.3734,-252"/>
<text text-anchor="middle" x="2147" y="-229.8" font-family="Times,serif" font-size="14.00" fill="#000000">IonicApp </text>
</g>
<!-- AppModule&#45;&gt;IonicApp  -->
<g id="edge23" class="edge">
<title>AppModule&#45;&gt;IonicApp </title>
<path fill="none" stroke="#000000" stroke-dasharray="1,5" d="M2147,-187.1061C2147,-187.1061 2147,-205.991 2147,-205.991"/>
<polygon fill="#000000" stroke="#000000" points="2143.5001,-205.9909 2147,-215.991 2150.5001,-205.991 2143.5001,-205.9909"/>
</g>
<!-- AlertService -->
<g id="node25" class="node">
<title>AlertService</title>
<ellipse fill="#fdb462" stroke="#000000" cx="1460" cy="-104" rx="59.6646" ry="18"/>
<text text-anchor="middle" x="1460" y="-99.8" font-family="Times,serif" font-size="14.00" fill="#000000">AlertService</text>
</g>
<!-- AlertService&#45;&gt;AppModule -->
<g id="edge24" class="edge">
<title>AlertService&#45;&gt;AppModule</title>
<path fill="none" stroke="#000000" d="M1460,-122.002C1460,-139.6754 1460,-164 1460,-164 1460,-164 2095.3161,-164 2095.3161,-164"/>
<polygon fill="#000000" stroke="#000000" points="2095.3161,-167.5001 2105.3161,-164 2095.316,-160.5001 2095.3161,-167.5001"/>
</g>
<!-- AuthService -->
<g id="node26" class="node">
<title>AuthService</title>
<ellipse fill="#fdb462" stroke="#000000" cx="1323" cy="-104" rx="59.1083" ry="18"/>
<text text-anchor="middle" x="1323" y="-99.8" font-family="Times,serif" font-size="14.00" fill="#000000">AuthService</text>
</g>
<!-- AuthService&#45;&gt;AppModule -->
<g id="edge25" class="edge">
<title>AuthService&#45;&gt;AppModule</title>
<path fill="none" stroke="#000000" d="M1323,-122.2667C1323,-140.5552 1323,-166 1323,-166 1323,-166 2095.2894,-166 2095.2894,-166"/>
<polygon fill="#000000" stroke="#000000" points="2095.2894,-169.5001 2105.2894,-166 2095.2893,-162.5001 2095.2894,-169.5001"/>
</g>
<!-- ChatroomService -->
<g id="node27" class="node">
<title>ChatroomService</title>
<ellipse fill="#fdb462" stroke="#000000" cx="1167" cy="-104" rx="78.7298" ry="18"/>
<text text-anchor="middle" x="1167" y="-99.8" font-family="Times,serif" font-size="14.00" fill="#000000">ChatroomService</text>
</g>
<!-- ChatroomService&#45;&gt;AppModule -->
<g id="edge26" class="edge">
<title>ChatroomService&#45;&gt;AppModule</title>
<path fill="none" stroke="#000000" d="M1167,-122.1686C1167,-141.0898 1167,-168 1167,-168 1167,-168 2095.2041,-168 2095.2041,-168"/>
<polygon fill="#000000" stroke="#000000" points="2095.2042,-171.5001 2105.2041,-168 2095.2041,-164.5001 2095.2042,-171.5001"/>
</g>
<!-- ContactService -->
<g id="node28" class="node">
<title>ContactService</title>
<ellipse fill="#fdb462" stroke="#000000" cx="1000" cy="-104" rx="70.0596" ry="18"/>
<text text-anchor="middle" x="1000" y="-99.8" font-family="Times,serif" font-size="14.00" fill="#000000">ContactService</text>
</g>
<!-- ContactService&#45;&gt;AppModule -->
<g id="edge27" class="edge">
<title>ContactService&#45;&gt;AppModule</title>
<path fill="none" stroke="#000000" d="M1000,-122.308C1000,-142.1455 1000,-171 1000,-171 1000,-171 2095.1593,-171 2095.1593,-171"/>
<polygon fill="#000000" stroke="#000000" points="2095.1594,-174.5001 2105.1593,-171 2095.1593,-167.5001 2095.1594,-174.5001"/>
</g>
<!-- FirestoreService -->
<g id="node29" class="node">
<title>FirestoreService</title>
<ellipse fill="#fdb462" stroke="#000000" cx="838" cy="-104" rx="74.1297" ry="18"/>
<text text-anchor="middle" x="838" y="-99.8" font-family="Times,serif" font-size="14.00" fill="#000000">FirestoreService</text>
</g>
<!-- FirestoreService&#45;&gt;AppModule -->
<g id="edge28" class="edge">
<title>FirestoreService&#45;&gt;AppModule</title>
<path fill="none" stroke="#000000" d="M838,-122.1289C838,-142.5724 838,-173 838,-173 838,-173 2095.2968,-173 2095.2968,-173"/>
<polygon fill="#000000" stroke="#000000" points="2095.2968,-176.5001 2105.2968,-173 2095.2967,-169.5001 2095.2968,-176.5001"/>
</g>
<!-- NotificationService -->
<g id="node30" class="node">
<title>NotificationService</title>
<ellipse fill="#fdb462" stroke="#000000" cx="659" cy="-104" rx="86.8107" ry="18"/>
<text text-anchor="middle" x="659" y="-99.8" font-family="Times,serif" font-size="14.00" fill="#000000">NotificationService</text>
</g>
<!-- NotificationService&#45;&gt;AppModule -->
<g id="edge29" class="edge">
<title>NotificationService&#45;&gt;AppModule</title>
<path fill="none" stroke="#000000" d="M659,-122.2843C659,-143.3211 659,-175 659,-175 659,-175 2095.2575,-175 2095.2575,-175"/>
<polygon fill="#000000" stroke="#000000" points="2095.2575,-178.5001 2105.2575,-175 2095.2575,-171.5001 2095.2575,-178.5001"/>
</g>
<!-- RequestService -->
<g id="node31" class="node">
<title>RequestService</title>
<ellipse fill="#fdb462" stroke="#000000" cx="483" cy="-104" rx="71.2036" ry="18"/>
<text text-anchor="middle" x="483" y="-99.8" font-family="Times,serif" font-size="14.00" fill="#000000">RequestService</text>
</g>
<!-- RequestService&#45;&gt;AppModule -->
<g id="edge30" class="edge">
<title>RequestService&#45;&gt;AppModule</title>
<path fill="none" stroke="#000000" d="M483,-122.0449C483,-143.6623 483,-177 483,-177 483,-177 2095.035,-177 2095.035,-177"/>
<polygon fill="#000000" stroke="#000000" points="2095.035,-180.5001 2105.035,-177 2095.0349,-173.5001 2095.035,-180.5001"/>
</g>
<!-- UserService -->
<g id="node32" class="node">
<title>UserService</title>
<ellipse fill="#fdb462" stroke="#000000" cx="336" cy="-104" rx="58.4415" ry="18"/>
<text text-anchor="middle" x="336" y="-99.8" font-family="Times,serif" font-size="14.00" fill="#000000">UserService</text>
</g>
<!-- UserService&#45;&gt;AppModule -->
<g id="edge31" class="edge">
<title>UserService&#45;&gt;AppModule</title>
<path fill="none" stroke="#000000" d="M316.5932,-121.0888C316.5932,-143.7736 316.5932,-181 316.5932,-181 316.5932,-181 2095.3303,-181 2095.3303,-181"/>
<polygon fill="#000000" stroke="#000000" points="2095.3303,-184.5001 2105.3303,-181 2095.3302,-177.5001 2095.3303,-184.5001"/>
</g>
<!-- UserService&#45;&gt;AppModule -->
<g id="edge32" class="edge">
<title>UserService&#45;&gt;AppModule</title>
<path fill="none" stroke="#000000" d="M355.4068,-121.0187C355.4068,-143.1468 355.4068,-179 355.4068,-179 355.4068,-179 2094.9168,-179 2094.9168,-179"/>
<polygon fill="#000000" stroke="#000000" points="2094.9169,-182.5001 2104.9168,-179 2094.9168,-175.5001 2094.9169,-182.5001"/>
</g>
<!-- UtilService -->
<g id="node33" class="node">
<title>UtilService</title>
<ellipse fill="#fdb462" stroke="#000000" cx="205" cy="-104" rx="55.0285" ry="18"/>
<text text-anchor="middle" x="205" y="-99.8" font-family="Times,serif" font-size="14.00" fill="#000000">UtilService</text>
</g>
<!-- UtilService&#45;&gt;AppModule -->
<g id="edge33" class="edge">
<title>UtilService&#45;&gt;AppModule</title>
<path fill="none" stroke="#000000" d="M205,-122.3228C205,-145.6602 205,-183 205,-183 205,-183 2095.0875,-183 2095.0875,-183"/>
<polygon fill="#000000" stroke="#000000" points="2095.0875,-186.5001 2105.0875,-183 2095.0874,-179.5001 2095.0875,-186.5001"/>
</g>
<!-- VipService -->
<g id="node34" class="node">
<title>VipService</title>
<ellipse fill="#fdb462" stroke="#000000" cx="78" cy="-104" rx="54.4508" ry="18"/>
<text text-anchor="middle" x="78" y="-99.8" font-family="Times,serif" font-size="14.00" fill="#000000">VipService</text>
</g>
<!-- VipService&#45;&gt;AppModule -->
<g id="edge34" class="edge">
<title>VipService&#45;&gt;AppModule</title>
<path fill="none" stroke="#000000" d="M78,-122.3802C78,-146.2785 78,-185 78,-185 78,-185 2095.2034,-185 2095.2034,-185"/>
<polygon fill="#000000" stroke="#000000" points="2095.2034,-188.5001 2105.2034,-185 2095.2034,-181.5001 2095.2034,-188.5001"/>
</g>
<!-- AgePipe -->
<g id="node35" class="node">
<title>AgePipe</title>
<polygon fill="#ffffb3" stroke="#000000" points="4710.2093,-122 4645.7907,-122 4645.7907,-86 4710.2093,-86 4710.2093,-122"/>
<text text-anchor="middle" x="4678" y="-99.8" font-family="Times,serif" font-size="14.00" fill="#000000">AgePipe</text>
</g>
<!-- PipeModule -->
<g id="node37" class="node">
<title>PipeModule</title>
<polygon fill="#8dd3c7" stroke="#000000" points="4600.4387,-187 4597.4387,-191 4576.4387,-191 4573.4387,-187 4515.5613,-187 4515.5613,-151 4600.4387,-151 4600.4387,-187"/>
<text text-anchor="middle" x="4558" y="-164.8" font-family="Times,serif" font-size="14.00" fill="#000000">PipeModule</text>
</g>
<!-- AgePipe&#45;&gt;PipeModule -->
<g id="edge35" class="edge">
<title>AgePipe&#45;&gt;PipeModule</title>
<path fill="none" stroke="#000000" d="M4688.7848,-122.0225C4688.7848,-139.3734 4688.7848,-163 4688.7848,-163 4688.7848,-163 4610.4621,-163 4610.4621,-163"/>
<polygon fill="#000000" stroke="#000000" points="4610.4621,-159.5001 4600.4621,-163 4610.4621,-166.5001 4610.4621,-159.5001"/>
</g>
<!-- CalculateDistancePipe -->
<g id="node36" class="node">
<title>CalculateDistancePipe</title>
<polygon fill="#ffffb3" stroke="#000000" points="4628.2311,-122 4485.7689,-122 4485.7689,-86 4628.2311,-86 4628.2311,-122"/>
<text text-anchor="middle" x="4557" y="-99.8" font-family="Times,serif" font-size="14.00" fill="#000000">CalculateDistancePipe</text>
</g>
<!-- CalculateDistancePipe&#45;&gt;PipeModule -->
<g id="edge36" class="edge">
<title>CalculateDistancePipe&#45;&gt;PipeModule</title>
<path fill="none" stroke="#000000" d="M4558,-122.1061C4558,-122.1061 4558,-140.991 4558,-140.991"/>
<polygon fill="#000000" stroke="#000000" points="4554.5001,-140.9909 4558,-150.991 4561.5001,-140.991 4554.5001,-140.9909"/>
</g>
<!-- AgePipe  -->
<g id="node38" class="node">
<title>AgePipe </title>
<polygon fill="#fb8072" stroke="#000000" points="4713.7096,-252 4646.2904,-252 4646.2904,-216 4713.7096,-216 4713.7096,-252"/>
<text text-anchor="middle" x="4680" y="-229.8" font-family="Times,serif" font-size="14.00" fill="#000000">AgePipe </text>
</g>
<!-- PipeModule&#45;&gt;AgePipe  -->
<g id="edge37" class="edge">
<title>PipeModule&#45;&gt;AgePipe </title>
<path fill="none" stroke="#000000" stroke-dasharray="5,2" d="M4600.3221,-175C4631.1256,-175 4667.4652,-175 4667.4652,-175 4667.4652,-175 4667.4652,-205.9775 4667.4652,-205.9775"/>
<polygon fill="#000000" stroke="#000000" points="4663.9653,-205.9774 4667.4652,-215.9775 4670.9653,-205.9775 4663.9653,-205.9774"/>
</g>
<!-- CalculateDistancePipe  -->
<g id="node39" class="node">
<title>CalculateDistancePipe </title>
<polygon fill="#fb8072" stroke="#000000" points="4628.231,-252 4481.769,-252 4481.769,-216 4628.231,-216 4628.231,-252"/>
<text text-anchor="middle" x="4555" y="-229.8" font-family="Times,serif" font-size="14.00" fill="#000000">CalculateDistancePipe </text>
</g>
<!-- PipeModule&#45;&gt;CalculateDistancePipe  -->
<g id="edge38" class="edge">
<title>PipeModule&#45;&gt;CalculateDistancePipe </title>
<path fill="none" stroke="#000000" stroke-dasharray="5,2" d="M4558,-187.1061C4558,-187.1061 4558,-205.991 4558,-205.991"/>
<polygon fill="#000000" stroke="#000000" points="4554.5001,-205.9909 4558,-215.991 4561.5001,-205.991 4554.5001,-205.9909"/>
</g>
<!-- PrelaunchPage -->
<g id="node40" class="node">
<title>PrelaunchPage</title>
<polygon fill="#ffffb3" stroke="#000000" points="4866.6896,-122 4767.3104,-122 4767.3104,-86 4866.6896,-86 4866.6896,-122"/>
<text text-anchor="middle" x="4817" y="-99.8" font-family="Times,serif" font-size="14.00" fill="#000000">PrelaunchPage</text>
</g>
<!-- PrelaunchPageModule -->
<g id="node41" class="node">
<title>PrelaunchPageModule</title>
<polygon fill="#8dd3c7" stroke="#000000" points="4888.2394,-187 4885.2394,-191 4864.2394,-191 4861.2394,-187 4745.7606,-187 4745.7606,-151 4888.2394,-151 4888.2394,-187"/>
<text text-anchor="middle" x="4817" y="-164.8" font-family="Times,serif" font-size="14.00" fill="#000000">PrelaunchPageModule</text>
</g>
<!-- PrelaunchPage&#45;&gt;PrelaunchPageModule -->
<g id="edge39" class="edge">
<title>PrelaunchPage&#45;&gt;PrelaunchPageModule</title>
<path fill="none" stroke="#000000" d="M4817,-122.1061C4817,-122.1061 4817,-140.991 4817,-140.991"/>
<polygon fill="#000000" stroke="#000000" points="4813.5001,-140.9909 4817,-150.991 4820.5001,-140.991 4813.5001,-140.9909"/>
</g>
</g>
</svg>
